<svg width="100" height="25" viewBox="0 0 100 25" fill="none" xmlns="http://www.w3.org/2000/svg">
<path d="M0 0H1.37947L9.75975 14.8293L18.1056 0H19.3816V24.0028H0V0ZM1.27601 22.7613H18.1056V2.58651L10.346 16.2433H9.13899L1.27601 2.37959V22.7613Z" fill="#3F312C"/>
<path d="M35.8049 0.0344863H37.1499L47.0131 24.0373H45.6336L42.3919 16.1053H30.5629L27.2867 24.0373H25.9417L35.8049 0.0344863ZM31.0802 14.8638H41.8746L36.4601 1.68985L31.0802 14.8638Z" fill="#3F312C"/>
<path d="M72.1616 0.0344863L72.1271 1.3105L55.9183 22.7613H72.1616V24.0373H54.3319V22.7613L70.5062 1.3105H54.7113V0.0344863H72.1616Z" fill="#3F312C"/>
<path d="M81.5151 0.0344863L90.0333 12.8636L98.4826 0.0344863H100L90.6541 14.2085V24.0373H89.3781V14.2085L79.9977 0.0344863H81.5151Z" fill="#3F312C"/>
</svg>
