<svg width="20" height="20" viewBox="0 0 20 20" xmlns="http://www.w3.org/2000/svg">
  <path d="M12.8043 2.86523L15.4802 7.50023H18.3327V9.1669H17.3602L16.7293 16.7361C16.712 16.9443 16.6171 17.1384 16.4633 17.28C16.3096 17.4215 16.1083 17.5001 15.8993 17.5002H4.09935C3.89039 17.5001 3.6891 17.4215 3.53537 17.28C3.38164 17.1384 3.28669 16.9443 3.26935 16.7361L2.63768 9.1669H1.66602V7.50023H4.51768L7.19435 2.86523L8.63768 3.69857L6.44268 7.50023H13.5552L11.361 3.69857L12.8043 2.86523ZM10.8327 10.8336H9.16602V14.1669H10.8327V10.8336ZM7.49935 10.8336H5.83268V14.1669H7.49935V10.8336ZM14.166 10.8336H12.4993V14.1669H14.166V10.8336Z" fill="#252525"/>
</svg>